<svg xmlns="http://www.w3.org/2000/svg" viewBox="0 0 500 300" width="500" height="300">
  <defs>
    <marker id="darr" markerWidth="6" markerHeight="5" refX="5" refY="2.5" orient="auto">
      <path d="M0,0 L6,2.5 L0,5 Z" fill="#333"/>
    </marker>
  </defs>
  <style>
    text { font-family: 'Helvetica Neue', Helvetica, Arial, sans-serif; }
  </style>

  <!-- Panel (a) label -->
  <text x="125" y="20" text-anchor="middle" fill="#333" font-size="11" font-weight="bold">(a) Uniform LR</text>

  <!-- 5 layers - uniform (all same color) -->
  <rect x="75" y="35" rx="4" ry="4" width="100" height="36" fill="#5da5da" stroke="#4080b0" stroke-width="0.8"/>
  <text x="125" y="57" text-anchor="middle" fill="#fff" font-size="9">Layer 5 (Top)</text>

  <rect x="75" y="75" rx="4" ry="4" width="100" height="36" fill="#5da5da" stroke="#4080b0" stroke-width="0.8"/>
  <text x="125" y="97" text-anchor="middle" fill="#fff" font-size="9">Layer 4</text>

  <rect x="75" y="115" rx="4" ry="4" width="100" height="36" fill="#5da5da" stroke="#4080b0" stroke-width="0.8"/>
  <text x="125" y="137" text-anchor="middle" fill="#fff" font-size="9">Layer 3</text>

  <rect x="75" y="155" rx="4" ry="4" width="100" height="36" fill="#5da5da" stroke="#4080b0" stroke-width="0.8"/>
  <text x="125" y="177" text-anchor="middle" fill="#fff" font-size="9">Layer 2</text>

  <rect x="75" y="195" rx="4" ry="4" width="100" height="36" fill="#5da5da" stroke="#4080b0" stroke-width="0.8"/>
  <text x="125" y="217" text-anchor="middle" fill="#fff" font-size="9">Layer 1 (Bottom)</text>

  <!-- Warning signs on bottom layers -->
  <text x="63" y="177" text-anchor="middle" fill="#e74c3c" font-size="12">⚠</text>
  <text x="63" y="214" text-anchor="middle" fill="#e74c3c" font-size="13">⚠</text>

  <!-- Same LR bracket on right -->
  <line x1="180" y1="40" x2="190" y2="40" stroke="#555" stroke-width="1"/>
  <line x1="190" y1="40" x2="190" y2="226" stroke="#555" stroke-width="1"/>
  <line x1="180" y1="226" x2="190" y2="226" stroke="#555" stroke-width="1"/>
  <text x="195" y="137" text-anchor="start" fill="#555" font-size="9">η</text>
  <text x="195" y="148" text-anchor="start" fill="#555" font-size="9">(same)</text>

  <!-- Problem annotation -->
  <text x="125" y="254" text-anchor="middle" fill="#c0392b" font-size="8.5" font-weight="bold">⚠ Forgetting risk in lower layers</text>
  <text x="125" y="266" text-anchor="middle" fill="#c0392b" font-size="8">⚠ Slow convergence in upper layers</text>

  <!-- Divider -->
  <line x1="250" y1="15" x2="250" y2="275" stroke="#ccc" stroke-width="0.8" stroke-dasharray="4,3"/>

  <!-- Panel (b) label -->
  <text x="375" y="20" text-anchor="middle" fill="#333" font-size="11" font-weight="bold">(b) Discriminative Fine-tuning</text>

  <!-- 5 layers - discriminative (gradient) -->
  <rect x="325" y="35" rx="4" ry="4" width="100" height="36" fill="#27ae60" stroke="#1e8449" stroke-width="0.8"/>
  <text x="375" y="57" text-anchor="middle" fill="#fff" font-size="9">Layer 5 (Top)</text>

  <rect x="325" y="75" rx="4" ry="4" width="100" height="36" fill="#2ecc71" stroke="#27ae60" stroke-width="0.8"/>
  <text x="375" y="97" text-anchor="middle" fill="#fff" font-size="9">Layer 4</text>

  <rect x="325" y="115" rx="4" ry="4" width="100" height="36" fill="#58d68d" stroke="#2ecc71" stroke-width="0.8"/>
  <text x="375" y="137" text-anchor="middle" fill="#333" font-size="9">Layer 3</text>

  <rect x="325" y="155" rx="4" ry="4" width="100" height="36" fill="#82e0aa" stroke="#58d68d" stroke-width="0.8"/>
  <text x="375" y="177" text-anchor="middle" fill="#333" font-size="9">Layer 2</text>

  <rect x="325" y="195" rx="4" ry="4" width="100" height="36" fill="#abebc6" stroke="#82e0aa" stroke-width="0.8"/>
  <text x="375" y="217" text-anchor="middle" fill="#333" font-size="9">Layer 1 (Bottom)</text>

  <!-- Check mark on bottom layers -->
  <text x="313" y="214" text-anchor="middle" fill="#27ae60" font-size="12">✓</text>

  <!-- LR arrows on right side - decreasing -->
  <!-- η⁵ arrow - large -->
  <line x1="435" y1="48" x2="465" y2="48" stroke="#1e8449" stroke-width="2.5" marker-end="url(#darr)"/>
  <text x="470" y="52" text-anchor="start" fill="#1e8449" font-size="9">η⁵ (large)</text>

  <!-- η⁴ -->
  <line x1="435" y1="88" x2="457" y2="88" stroke="#229954" stroke-width="2" marker-end="url(#darr)"/>
  <text x="470" y="92" text-anchor="start" fill="#229954" font-size="9">η⁴</text>

  <!-- η³ -->
  <line x1="435" y1="128" x2="449" y2="128" stroke="#27ae60" stroke-width="1.5" marker-end="url(#darr)"/>
  <text x="470" y="132" text-anchor="start" fill="#27ae60" font-size="9">η³</text>

  <!-- η² -->
  <line x1="435" y1="168" x2="445" y2="168" stroke="#2ecc71" stroke-width="1.2" marker-end="url(#darr)"/>
  <text x="470" y="172" text-anchor="start" fill="#2ecc71" font-size="9">η²</text>

  <!-- η¹ -->
  <line x1="435" y1="208" x2="440" y2="208" stroke="#58d68d" stroke-width="0.9" marker-end="url(#darr)"/>
  <text x="470" y="212" text-anchor="start" fill="#58d68d" font-size="9">η¹ (small)</text>

  <!-- Decay formula -->
  <text x="375" y="254" text-anchor="middle" fill="#27ae60" font-size="8.5" font-style="italic">ηˡ = η_top × decay^(L − l)</text>
  <text x="375" y="266" text-anchor="middle" fill="#27ae60" font-size="8">✓ Knowledge preserved ✓ Fast convergence</text>
</svg>