<svg xmlns="http://www.w3.org/2000/svg" viewBox="0 0 360 280" width="360" height="280">
  <defs>
    <marker id="darr" markerWidth="6" markerHeight="4" refX="5" refY="2" orient="auto">
      <path d="M0,0 L6,2 L0,4 Z" fill="#333"/>
    </marker>
  </defs>
  <style>
    text { font-family: 'Helvetica Neue', Helvetica, Arial, sans-serif; }
  </style>

  <rect width="360" height="280" fill="#fff" rx="4"/>

  <!-- ====== Panel (a): Uniform LR ====== -->
  <text x="95" y="18" text-anchor="middle" fill="#333" font-size="10" font-weight="bold">(a) Uniform LR</text>

  <rect x="18" y="30" rx="4" ry="4" width="72" height="30" fill="#5da5da" stroke="#4080b0" stroke-width="0.8"/>
  <text x="54" y="49" text-anchor="middle" fill="#fff" font-size="9">Layer 5 (Top)</text>

  <rect x="18" y="64" rx="4" ry="4" width="72" height="30" fill="#5da5da" stroke="#4080b0" stroke-width="0.8"/>
  <text x="54" y="83" text-anchor="middle" fill="#fff" font-size="9">Layer 4</text>

  <rect x="18" y="98" rx="4" ry="4" width="72" height="30" fill="#5da5da" stroke="#4080b0" stroke-width="0.8"/>
  <text x="54" y="117" text-anchor="middle" fill="#fff" font-size="9">Layer 3</text>

  <rect x="18" y="132" rx="4" ry="4" width="72" height="30" fill="#5da5da" stroke="#4080b0" stroke-width="0.8"/>
  <text x="54" y="151" text-anchor="middle" fill="#fff" font-size="9">Layer 2</text>

  <rect x="18" y="166" rx="4" ry="4" width="72" height="30" fill="#5da5da" stroke="#4080b0" stroke-width="0.8"/>
  <text x="54" y="185" text-anchor="middle" fill="#fff" font-size="9">Layer 1 (Bot.)</text>

  <!-- Same LR bracket -->
  <line x1="96" y1="34" x2="102" y2="34" stroke="#555" stroke-width="1"/>
  <line x1="102" y1="34" x2="102" y2="192" stroke="#555" stroke-width="1"/>
  <line x1="96" y1="192" x2="102" y2="192" stroke="#555" stroke-width="1"/>
  <text x="108" y="110" text-anchor="start" fill="#555" font-size="8">η</text>
  <text x="108" y="120" text-anchor="start" fill="#555" font-size="8">(same)</text>

  <!-- Warnings -->
  <text x="10" y="151" text-anchor="middle" fill="#e74c3c" font-size="11">⚠</text>
  <text x="10" y="185" text-anchor="middle" fill="#e74c3c" font-size="11">⚠</text>

  <text x="54" y="218" text-anchor="middle" fill="#c0392b" font-size="8">⚠ Forgetting risk</text>
  <text x="54" y="230" text-anchor="middle" fill="#c0392b" font-size="8">⚠ Slow convergence</text>

  <!-- Divider -->
  <line x1="180" y1="10" x2="180" y2="270" stroke="#ccc" stroke-width="0.8" stroke-dasharray="4,3"/>

  <!-- ====== Panel (b): Discriminative Fine-tuning ====== -->
  <text x="275" y="18" text-anchor="middle" fill="#333" font-size="10" font-weight="bold">(b) Discriminive LR</text>

  <rect x="200" y="30" rx="4" ry="4" width="72" height="30" fill="#27ae60" stroke="#1e8449" stroke-width="0.8"/>
  <text x="236" y="49" text-anchor="middle" fill="#fff" font-size="9">Layer 5 (Top)</text>

  <rect x="200" y="64" rx="4" ry="4" width="72" height="30" fill="#2ecc71" stroke="#27ae60" stroke-width="0.8"/>
  <text x="236" y="83" text-anchor="middle" fill="#fff" font-size="9">Layer 4</text>

  <rect x="200" y="98" rx="4" ry="4" width="72" height="30" fill="#58d68d" stroke="#2ecc71" stroke-width="0.8"/>
  <text x="236" y="117" text-anchor="middle" fill="#333" font-size="9">Layer 3</text>

  <rect x="200" y="132" rx="4" ry="4" width="72" height="30" fill="#82e0aa" stroke="#58d68d" stroke-width="0.8"/>
  <text x="236" y="151" text-anchor="middle" fill="#333" font-size="9">Layer 2</text>

  <rect x="200" y="166" rx="4" ry="4" width="72" height="30" fill="#abebc6" stroke="#82e0aa" stroke-width="0.8"/>
  <text x="236" y="185" text-anchor="middle" fill="#333" font-size="9">Layer 1 (Bot.)</text>

  <!-- Check mark -->
  <text x="192" y="185" text-anchor="middle" fill="#27ae60" font-size="11">✓</text>

  <!-- LR arrows -->
  <line x1="278" y1="48" x2="296" y2="48" stroke="#1e8449" stroke-width="2.5" marker-end="url(#darr)"/>
  <text x="302" y="52" text-anchor="start" fill="#1e8449" font-size="8">η⁵ (large)</text>

  <line x1="278" y1="82" x2="290" y2="82" stroke="#229954" stroke-width="2" marker-end="url(#darr)"/>
  <text x="302" y="86" text-anchor="start" fill="#229954" font-size="8">η⁴</text>

  <line x1="278" y1="116" x2="284" y2="116" stroke="#27ae60" stroke-width="1.5" marker-end="url(#darr)"/>
  <text x="302" y="120" text-anchor="start" fill="#27ae60" font-size="8">η³</text>

  <line x1="278" y1="150" x2="280" y2="150" stroke="#2ecc71" stroke-width="1" marker-end="url(#darr)"/>
  <text x="302" y="154" text-anchor="start" fill="#2ecc71" font-size="8">η²</text>

  <!-- Decay formula -->
  <text x="236" y="218" text-anchor="middle" fill="#27ae60" font-size="8" font-style="italic">ηˡ = η_top × decay^(L−l)</text>
  <text x="236" y="230" text-anchor="middle" fill="#27ae60" font-size="7.5">✓ Knowledge preserved ✓ Fast convergence</text>

  <!-- Small annotation at bottom -->
  <text x="180" y="260" text-anchor="middle" fill="#94a3b8" font-size="7.5">Lower layers need small η to preserve; Upper layers need large η to adapt</text>
  <text x="180" y="272" text-anchor="middle" fill="#94a3b8" font-size="7.5">Discriminative LR assigns per-layer η, resolving the impossible trinity.</text>
</svg>
